<svg width="29" height="29" viewBox="0 0 29 29" fill="none" xmlns="http://www.w3.org/2000/svg">
<path d="M28.9507 25.4736L25.9534 9.7063C25.7783 8.787 24.9219 8.12 23.9155 8.12H20.9432L20.6213 5.1388C20.3025 2.2098 17.6708 0 14.4984 0C11.326 0 8.69436 2.2098 8.37869 5.1388L8.05676 8.12H5.08441C4.078 8.12 3.22161 8.787 3.04659 9.7063L0.0492339 25.4736C-0.116418 26.3494 0.139873 27.2455 0.758722 27.927C1.37445 28.6085 2.28084 29 3.24037 29H25.7658C26.7254 29 27.6286 28.6085 28.2475 27.927C28.8601 27.2455 29.1164 26.3494 28.9507 25.4736ZM9.62264 5.2548C9.87268 2.9203 11.9699 1.16 14.4984 1.16C17.0269 1.16 19.1241 2.9203 19.3742 5.2548L19.6836 8.12H9.31321L9.62264 5.2548ZM4.27803 9.9064C4.34679 9.5439 4.68435 9.28 5.08441 9.28H7.93174L7.6817 11.6H7.62232C7.27851 11.6 6.99722 11.861 6.99722 12.18C6.99722 12.499 7.27851 12.76 7.62232 12.76H8.87252C9.21632 12.76 9.49762 12.499 9.49762 12.18C9.49762 11.8813 9.2507 11.6377 8.93815 11.6058L9.18819 9.28H19.8086L20.0587 11.6058C19.7461 11.6377 19.4992 11.8813 19.4992 12.18C19.4992 12.499 19.7805 12.76 20.1243 12.76H21.3745C21.7183 12.76 21.9996 12.499 21.9996 12.18C21.9996 11.861 21.7183 11.6 21.3745 11.6H21.3151L21.0651 9.28H23.9124C24.3094 9.28 24.65 9.5439 24.7188 9.9064L26.916 21.46H2.08081L4.27803 9.9064ZM27.2848 27.1817C26.9066 27.5993 26.3503 27.84 25.7627 27.84H3.23412C2.64652 27.84 2.09018 27.5993 1.712 27.1817C1.33381 26.7641 1.17441 26.2131 1.27755 25.6766L1.8589 22.62H27.1379L27.7193 25.6737C27.8224 26.2131 27.663 26.7612 27.2848 27.1817Z" fill="#D6336C"/>
</svg>
