<svg width="25" height="21" viewBox="0 0 25 21" fill="none" xmlns="http://www.w3.org/2000/svg">
<path d="M13.97 -7.85599e-05C8.03162 -0.163412 3.16662 4.60825 3.16662 10.4999H1.07829C0.553288 10.4999 0.296621 11.1299 0.669954 11.4916L3.92495 14.7583C4.15829 14.9916 4.51995 14.9916 4.75329 14.7583L8.00829 11.4916C8.36995 11.1299 8.11329 10.4999 7.58829 10.4999H5.49995C5.49995 5.94992 9.20995 2.27492 13.7833 2.33325C18.1233 2.39159 21.775 6.04325 21.8333 10.3833C21.8916 14.9449 18.2166 18.6666 13.6666 18.6666C11.7883 18.6666 10.05 18.0249 8.67329 16.9399C8.20662 16.5783 7.55329 16.6133 7.13329 17.0333C6.64329 17.5233 6.67829 18.3516 7.22662 18.7716C8.99995 20.1716 11.2283 20.9999 13.6666 20.9999C19.5583 20.9999 24.33 16.1349 24.1666 10.1966C24.015 4.72492 19.4416 0.151588 13.97 -7.85599e-05ZM13.375 5.83325C12.8966 5.83325 12.5 6.22992 12.5 6.70825V11.0016C12.5 11.4099 12.7216 11.7949 13.0716 12.0049L16.7116 14.1633C17.1316 14.4083 17.6683 14.2683 17.9133 13.8599C18.1583 13.4399 18.0183 12.9033 17.61 12.6583L14.25 10.6633V6.69659C14.25 6.22992 13.8533 5.83325 13.375 5.83325Z" fill="#D6336C"/>
</svg>
