<svg width="29" height="29" viewBox="0 0 29 29" fill="none" xmlns="http://www.w3.org/2000/svg">
<path d="M24.5163 10.7581C24.2119 10.4681 23.8076 10.3064 23.3872 10.3064C22.9668 10.3064 22.5624 10.4681 22.258 10.7581L18.7472 14.2689C19.4456 12.9378 19.9389 11.5088 20.2103 10.0303L20.5732 8.03534C20.5914 7.9357 20.5767 7.83285 20.5314 7.74227C20.4861 7.65168 20.4127 7.57823 20.3221 7.53298L19.6261 7.18498C18.7287 6.73498 17.934 6.10449 17.2917 5.33301C16.6494 4.56154 16.1734 3.66571 15.8935 2.70168C15.7892 1.15485 13.4191 0 10.2904 0C7.16169 0 4.79164 1.15485 4.68734 2.70168C4.40742 3.66571 3.9314 4.56154 3.28911 5.33301C2.64682 6.10449 1.8521 6.73498 0.954761 7.18498L0.258762 7.53298C0.168151 7.57823 0.094676 7.65168 0.0493813 7.74227C0.00408651 7.83285 -0.0105803 7.9357 0.00758547 8.03534L0.37102 10.0349C0.791089 12.3229 1.7367 14.4821 3.13336 16.3424C4.53002 18.2027 6.33957 19.7133 8.41944 20.7551V23.454C6.7295 23.5775 3.74203 23.976 3.74203 25.2581V27.129C3.74203 28.9476 9.62014 29 10.2904 29C10.9607 29 16.8388 28.9476 16.8388 27.129V25.2581C16.8388 23.976 13.8513 23.5775 12.1614 23.454V20.756C14.4129 19.6252 16.3439 17.9465 17.7771 15.8742C17.7771 15.884 17.7743 15.8934 17.7743 15.9032C17.7736 16.113 17.8147 16.3209 17.8949 16.5147C17.9752 16.7085 18.0932 16.8845 18.242 17.0324L21.5162 20.3065V23.5003C20.2757 23.657 18.242 24.0915 18.242 25.2581V27.129C18.242 28.4144 20.9081 29 23.3872 29C25.8662 29 28.5323 28.4144 28.5323 27.129V25.2581C28.5323 24.0887 26.4934 23.6565 25.2581 23.5003V20.3065L28.5323 17.0324C28.8318 16.7329 29 16.3267 29 15.9032C29 15.4797 28.8318 15.0736 28.5323 14.7741L24.5163 10.7581ZM15.4356 10.7581C15.4356 10.8506 15.4081 10.941 15.3567 11.0179C15.3053 11.0948 15.2323 11.1548 15.1468 11.1902C15.0613 11.2256 14.9673 11.2349 14.8766 11.2168C14.7858 11.1988 14.7025 11.1542 14.6371 11.0888C14.5717 11.0234 14.5271 10.94 14.5091 10.8493C14.491 10.7586 14.5003 10.6645 14.5357 10.5791C14.5711 10.4936 14.631 10.4205 14.708 10.3692C14.7849 10.3178 14.8753 10.2903 14.9678 10.2903C15.0919 10.2903 15.2108 10.3396 15.2986 10.4273C15.3863 10.515 15.4356 10.634 15.4356 10.7581ZM15.2574 9.38571C15.1622 9.36521 15.0652 9.35486 14.9678 9.35484C14.6134 9.35581 14.2726 9.49111 14.014 9.73346C13.7554 9.97581 13.5983 10.3072 13.5744 10.6608C13.105 10.9279 12.61 11.1473 12.0968 11.3156C11.9028 11.0097 11.6366 10.7563 11.3216 10.5775C11.0066 10.3987 10.6525 10.3001 10.2904 10.2903C9.92825 10.3002 9.57407 10.3989 9.25907 10.5779C8.94406 10.7568 8.67789 11.0105 8.48399 11.3165C7.97081 11.1482 7.4758 10.9288 7.0064 10.6617C6.98272 10.308 6.82573 9.97634 6.56713 9.7338C6.30852 9.49125 5.96754 9.35582 5.613 9.35484C5.51567 9.35486 5.41861 9.36521 5.32346 9.38571C4.50673 8.57569 3.87194 7.60095 3.46139 6.5264C4.18989 5.80389 4.77686 4.95151 5.19203 4.01323C6.06296 4.9749 7.9662 5.6129 10.2904 5.6129C12.6146 5.6129 14.5179 4.9749 15.3888 4.01323C15.804 4.95151 16.3909 5.80389 17.1194 6.5264C16.7089 7.60095 16.0741 8.57569 15.2574 9.38571ZM11.6936 13.0968C11.6936 14.1286 11.0641 14.9677 10.2904 14.9677C9.51677 14.9677 8.88719 14.1286 8.88719 13.0968C8.88719 12.0649 9.51677 11.2258 10.2904 11.2258C11.0641 11.2258 11.6936 12.0649 11.6936 13.0968ZM5.613 10.2903C5.70551 10.2903 5.79594 10.3178 5.87286 10.3692C5.94978 10.4205 6.00973 10.4936 6.04513 10.5791C6.08054 10.6645 6.0898 10.7586 6.07175 10.8493C6.0537 10.94 6.00915 11.0234 5.94374 11.0888C5.87832 11.1542 5.79498 11.1988 5.70425 11.2168C5.61352 11.2349 5.51947 11.2256 5.434 11.1902C5.34853 11.1548 5.27548 11.0948 5.22408 11.0179C5.17269 10.941 5.14526 10.8506 5.14526 10.7581C5.14526 10.634 5.19454 10.515 5.28225 10.4273C5.36997 10.3396 5.48894 10.2903 5.613 10.2903ZM10.2904 0.935484C12.9678 0.935484 14.9678 1.92335 14.9678 2.80645C14.9678 3.68955 12.9678 4.67742 10.2904 4.67742C7.61306 4.67742 5.613 3.68955 5.613 2.80645C5.613 1.92335 7.61306 0.935484 10.2904 0.935484ZM10.2904 28.0645C6.9512 28.0645 4.9184 27.4522 4.67751 27.0972V26.3203C6.36419 27.0996 9.78852 27.129 10.2904 27.129C10.7923 27.129 14.2166 27.0996 15.9033 26.3203V27.0972C15.6624 27.4522 13.6296 28.0645 10.2904 28.0645ZM10.2904 26.1935C7.05224 26.1935 5.04235 25.6178 4.70418 25.2581C4.93805 25.0219 6.06343 24.5658 8.43301 24.3895C8.44469 24.4881 8.48801 24.5804 8.55649 24.6523C8.74762 24.8449 8.97508 24.9976 9.22567 25.1016C9.47626 25.2055 9.745 25.2587 10.0163 25.2581H10.5645C10.8357 25.2589 11.1045 25.2058 11.355 25.102C11.6056 24.9982 11.8331 24.8457 12.0243 24.6533C12.0928 24.5813 12.1361 24.4891 12.1478 24.3904C14.5174 24.5667 15.6432 25.0228 15.8766 25.259C15.5385 25.6178 13.5286 26.1935 10.2904 26.1935ZM11.2259 24.1084C11.0332 24.247 10.8019 24.3219 10.5645 24.3226H10.0163C9.77891 24.3219 9.54766 24.247 9.35493 24.1084V21.1836C9.61452 21.2921 9.87552 21.3973 10.1426 21.4913C10.2412 21.5247 10.3482 21.5237 10.4462 21.4885C10.7104 21.395 10.9691 21.2911 11.2259 21.1836V24.1084ZM10.2904 20.5507C7.99128 19.7063 5.95205 18.277 4.37396 16.4038C2.79587 14.5307 1.73344 12.2785 1.29154 9.86936L0.990778 8.21448L1.37339 8.02318C1.84648 7.78463 2.29515 7.50045 2.713 7.17469C3.14272 8.18427 3.75262 9.1072 4.51287 9.89836C4.39713 10.0443 4.31172 10.2119 4.26166 10.3913C4.2116 10.5708 4.1979 10.7584 4.22137 10.9432C4.24483 11.128 4.30499 11.3062 4.3983 11.4674C4.49161 11.6286 4.6162 11.7696 4.76475 11.882C4.9133 11.9944 5.08281 12.0759 5.26332 12.1219C5.44384 12.1679 5.63172 12.1773 5.81593 12.1496C6.00014 12.122 6.17696 12.0578 6.33601 11.9608C6.49507 11.8639 6.63314 11.7361 6.74212 11.585C7.17354 11.8165 7.62313 12.0123 8.08641 12.1706C7.99758 12.4714 7.95221 12.7832 7.9517 13.0968C7.9517 14.6445 9.00085 15.9032 10.2904 15.9032C11.58 15.9032 12.6291 14.6445 12.6291 13.0968C12.6289 12.7833 12.5839 12.4714 12.4953 12.1706C12.9587 12.0123 13.4085 11.8164 13.8401 11.585C13.9487 11.7372 14.0866 11.866 14.2458 11.9639C14.405 12.0618 14.5823 12.1267 14.767 12.155C14.9518 12.1832 15.1403 12.1741 15.3215 12.1282C15.5026 12.0823 15.6728 12.0005 15.8218 11.8877C15.9708 11.775 16.0957 11.6334 16.1891 11.4716C16.2825 11.3097 16.3425 11.1307 16.3655 10.9452C16.3886 10.7598 16.3742 10.5716 16.3232 10.3918C16.2723 10.2119 16.1858 10.0442 16.0689 9.89836C16.8288 9.10712 17.4384 8.1842 17.8678 7.17469C18.2854 7.49991 18.7338 7.78362 19.2065 8.02177L19.5891 8.21308L19.2893 9.86281C18.848 12.2729 17.7859 14.5264 16.2078 16.4007C14.6297 18.275 12.5902 19.7054 10.2904 20.5507ZM22.4517 21.2079C22.7225 21.4081 23.0504 21.5162 23.3872 21.5162C23.7239 21.5162 24.0518 21.4081 24.3226 21.2079V24.1079C24.13 24.2467 23.8987 24.3217 23.6613 24.3226H23.1131C22.8757 24.3219 22.6444 24.247 22.4517 24.1084V21.2079ZM23.3872 28.0645C20.6509 28.0645 19.2481 27.3816 19.1775 27.129V26.3937C20.1728 26.8952 21.817 27.129 23.3872 27.129C24.9574 27.129 26.6019 26.8928 27.5968 26.3933V27.122C27.5262 27.3816 26.1235 28.0645 23.3872 28.0645ZM27.5968 25.251C27.5262 25.5106 26.1235 26.1935 23.3872 26.1935C20.6509 26.1935 19.2528 25.5125 19.1775 25.2665V25.2637C19.221 25.1149 19.8875 24.6631 21.5401 24.4414C21.5584 24.5208 21.5974 24.5939 21.6532 24.6533C21.8445 24.8457 22.0719 24.9982 22.3225 25.102C22.5731 25.2058 22.8418 25.2589 23.1131 25.2581H23.6613C23.9325 25.2589 24.2012 25.2058 24.4518 25.102C24.7024 24.9982 24.9299 24.8457 25.1211 24.6533C25.177 24.5939 25.2162 24.5208 25.2347 24.4414C26.8915 24.6636 27.5571 25.1177 27.5968 25.251ZM27.8709 16.371L23.8549 20.387C23.728 20.5055 23.5608 20.5715 23.3872 20.5715C23.2135 20.5715 23.0463 20.5055 22.9194 20.387L18.9034 16.371C18.7794 16.2469 18.7098 16.0786 18.7098 15.9032C18.7098 15.7278 18.7794 15.5596 18.9034 15.4355L22.9194 11.4195C23.0435 11.2955 23.2118 11.2259 23.3872 11.2259C23.5626 11.2259 23.7308 11.2955 23.8549 11.4195L27.8709 15.4355C27.9949 15.5596 28.0645 15.7278 28.0645 15.9032C28.0645 16.0786 27.9949 16.2469 27.8709 16.371Z" fill="#D6336C"/>
<path d="M25.1831 14.6427V13.6945H24.4223V14.6427C24.1743 14.7532 23.9716 14.9151 23.8371 15.1099C23.7026 15.3048 23.6418 15.5248 23.6616 15.745C23.6616 16.402 24.1629 16.9167 24.8027 16.9167C25.4425 16.9167 25.9438 16.402 25.9438 15.745C25.9636 15.5248 25.9028 15.3048 25.7683 15.1099C25.6338 14.9151 25.4311 14.7532 25.1831 14.6427ZM24.8027 16.3308C24.6475 16.3308 24.4223 16.1026 24.4223 15.745C24.4223 15.3873 24.6475 15.1591 24.8027 15.1591C24.9579 15.1591 25.1831 15.3873 25.1831 15.745C25.1831 16.1026 24.9579 16.3308 24.8027 16.3308Z" fill="#D6336C"/>
<path d="M22.1303 14.6427V13.6945H21.3696V14.6427C21.1216 14.7532 20.9188 14.9151 20.7843 15.1099C20.6499 15.3048 20.5891 15.5248 20.6089 15.745C20.6089 16.402 21.1102 16.9167 21.75 16.9167C22.3897 16.9167 22.891 16.402 22.891 15.745C22.9108 15.5248 22.8501 15.3048 22.7156 15.1099C22.5811 14.9151 22.3783 14.7532 22.1303 14.6427ZM21.75 16.3308C21.5948 16.3308 21.3696 16.1026 21.3696 15.745C21.3696 15.3873 21.5948 15.1591 21.75 15.1591C21.9051 15.1591 22.1303 15.3873 22.1303 15.745C22.1303 16.1026 21.9051 16.3308 21.75 16.3308Z" fill="#D6336C"/>
</svg>
