<svg width="29" height="29" viewBox="0 0 29 29" fill="none" xmlns="http://www.w3.org/2000/svg">
<path d="M14.7916 27.9398C22.3248 27.9398 28.4316 21.9225 28.4316 14.4998C28.4316 7.07711 22.3248 1.05981 14.7916 1.05981C7.25845 1.05981 1.15161 7.07711 1.15161 14.4998C1.15161 21.9225 7.25845 27.9398 14.7916 27.9398Z" fill="#EC5187"/>
<path d="M14.7916 1.05981C13.0004 1.05981 11.2267 1.40746 9.57181 2.08288C7.91692 2.7583 6.41328 3.74829 5.14668 4.99631C3.88009 6.24433 2.87538 7.72592 2.1899 9.35654C1.50443 10.9872 1.15161 12.7348 1.15161 14.4998C1.15418 15.6579 1.30865 16.8108 1.61116 17.9298L18.2649 1.52028C17.132 1.22027 15.9647 1.0655 14.7916 1.05981ZM19.4682 1.89216L1.9919 19.1122C2.20089 19.678 2.44825 20.2294 2.73229 20.7626L21.1476 2.61731C20.605 2.33875 20.0439 2.09648 19.4682 1.89216ZM27.6535 10.0723L10.2982 27.1731C10.7851 27.3422 11.2814 27.4838 11.7846 27.5975L28.0798 11.5412C27.9661 11.044 27.8237 10.5536 27.6535 10.0723Z" fill="#FDB4CE"/>
<path d="M14.7915 25.1401C20.7553 25.1401 25.5898 20.3764 25.5898 14.5001C25.5898 8.6238 20.7553 3.86011 14.7915 3.86011C8.82775 3.86011 3.99316 8.6238 3.99316 14.5001C3.99316 20.3764 8.82775 25.1401 14.7915 25.1401Z" fill="#FA6196"/>
<path d="M18.9175 4.67163C20.312 5.65534 21.4486 6.95215 22.2332 8.45472C23.0179 9.9573 23.4281 11.6224 23.4298 13.3123C23.4298 16.1342 22.2921 18.8405 20.267 20.8359C18.2419 22.8313 15.4953 23.9523 12.6315 23.9523C11.2158 23.9508 9.81426 23.675 8.50659 23.1407C10.3383 24.4376 12.5361 25.1367 14.7916 25.1401C17.6555 25.1401 20.4021 24.0191 22.4271 22.0237C24.4522 20.0283 25.5899 17.322 25.5899 14.5001C25.5891 12.3952 24.9546 10.3379 23.7669 8.58845C22.5792 6.83896 20.8916 5.47587 18.9175 4.67163Z" fill="#EC5187"/>
<path d="M14.7916 0.5C6.95128 0.5 0.583252 6.77465 0.583252 14.5C0.583252 22.2254 6.95128 28.5 14.7916 28.5C22.6319 28.5 28.9999 22.2254 28.9999 14.5C28.9999 6.77465 22.6319 0.5 14.7916 0.5ZM14.7916 1.62C22.0176 1.62 27.8633 7.37994 27.8633 14.5C27.8633 21.6201 22.0176 27.38 14.7916 27.38C7.56558 27.38 1.71992 21.6201 1.71992 14.5C1.71992 7.37994 7.56558 1.62 14.7916 1.62ZM14.7916 3.3C8.52069 3.3 3.42492 8.32104 3.42492 14.5C3.42492 17.008 4.26363 19.3296 5.67939 21.197C5.76962 21.3161 5.90417 21.395 6.05343 21.4163C6.20269 21.4377 6.35442 21.3997 6.47527 21.3108C6.59612 21.2219 6.67619 21.0893 6.69783 20.9422C6.71948 20.7952 6.68095 20.6456 6.59072 20.5266C5.31604 18.8452 4.56159 16.7623 4.56159 14.5C4.56159 8.92634 9.13499 4.42 14.7916 4.42C20.4482 4.42 25.0216 8.92634 25.0216 14.5C25.0216 20.0737 20.4482 24.58 14.7916 24.58C13.1416 24.58 11.5869 24.1966 10.2083 23.5147C10.1416 23.4816 10.0689 23.4618 9.99449 23.4564C9.92004 23.4511 9.84524 23.4602 9.77436 23.4833C9.70348 23.5064 9.63792 23.543 9.58141 23.5911C9.5249 23.6392 9.47855 23.6977 9.44501 23.7634C9.41148 23.8292 9.39142 23.9008 9.38597 23.9741C9.38052 24.0475 9.38979 24.1212 9.41326 24.191C9.43672 24.2609 9.47391 24.3255 9.52271 24.3811C9.57152 24.4368 9.63097 24.4824 9.69768 24.5155C11.23 25.2735 12.9624 25.7 14.7916 25.7C21.0625 25.7 26.1583 20.679 26.1583 14.5C26.1583 8.32104 21.0625 3.3 14.7916 3.3ZM14.7827 7.78547C14.6322 7.78778 14.4887 7.84887 14.3838 7.95529C14.2789 8.06172 14.2212 8.20479 14.2233 8.35313V9.37687C14.1499 9.3897 14.0765 9.39512 14.0035 9.41299C14.0031 9.41299 14.0027 9.41299 14.0023 9.41299C12.6679 9.73942 11.7001 10.868 11.7001 12.1813C11.7001 13.4899 12.6626 14.6134 13.9901 14.9441C14.7802 15.18 15.2525 15.0821 15.8028 15.3028C16.5611 15.7137 16.9033 16.4855 16.6853 17.2278C16.4651 17.9773 15.7006 18.5305 14.7938 18.5305C13.887 18.5305 13.1213 17.9773 12.9012 17.2278C12.8804 17.1571 12.8457 17.0912 12.7991 17.0337C12.7525 16.9762 12.6948 16.9284 12.6294 16.8929C12.564 16.8573 12.4921 16.8349 12.4179 16.8267C12.3437 16.8186 12.2686 16.8249 12.1968 16.8454C12.1251 16.8659 12.0582 16.9001 11.9998 16.946C11.9415 16.992 11.893 17.0489 11.8569 17.1133C11.8209 17.1778 11.7982 17.2486 11.7899 17.3217C11.7817 17.3949 11.7881 17.4689 11.8089 17.5395C12.1279 18.6254 13.0861 19.3991 14.2232 19.5969V20.6469C14.2222 20.7211 14.2361 20.7948 14.2642 20.8636C14.2922 20.9325 14.3339 20.9952 14.3868 21.048C14.4397 21.1009 14.5027 21.1428 14.5722 21.1715C14.6417 21.2001 14.7162 21.2149 14.7916 21.2149C14.8669 21.2149 14.9414 21.2001 15.0109 21.1715C15.0804 21.1428 15.1434 21.1009 15.1963 21.048C15.2492 20.9952 15.2909 20.9325 15.319 20.8636C15.347 20.7948 15.361 20.7211 15.3599 20.6469V19.598C16.4987 19.4015 17.4582 18.6269 17.7775 17.5395C18.1488 16.2754 17.5284 14.9334 16.3234 14.2988C16.3085 14.2912 16.2934 14.2842 16.2779 14.278C15.4247 13.9206 14.8516 14.0371 14.3076 13.8711C14.2973 13.8679 14.2869 13.865 14.2765 13.8624C13.4038 13.6489 12.8368 12.9526 12.8368 12.1813C12.8368 11.4097 13.4037 10.7137 14.2765 10.5002C15.1492 10.2869 16.0649 10.6437 16.4965 11.326C16.536 11.3884 16.5876 11.4426 16.6484 11.4853C16.7091 11.5281 16.7778 11.5587 16.8505 11.5753C16.9233 11.5919 16.9986 11.5943 17.0723 11.5822C17.1459 11.5701 17.2164 11.5439 17.2798 11.5049C17.3431 11.466 17.3981 11.4152 17.4415 11.3553C17.4849 11.2954 17.5159 11.2277 17.5327 11.1561C17.5495 11.0844 17.5519 11.0102 17.5396 10.9376C17.5273 10.865 17.5007 10.7956 17.4612 10.7332C16.9921 9.99168 16.2163 9.51186 15.3599 9.36488V8.35316C15.3609 8.27824 15.3467 8.20387 15.318 8.13446C15.2894 8.06505 15.2469 8.00202 15.1931 7.94909C15.1393 7.89616 15.0752 7.85441 15.0047 7.82631C14.9342 7.79821 14.8588 7.7843 14.7827 7.78547ZM23.2478 16.402C23.1872 16.4057 23.1294 16.4284 23.0829 16.4668C23.0364 16.5052 23.0035 16.5572 22.9892 16.6153C22.5742 18.1766 21.7073 19.5899 20.4916 20.6786C20.4627 20.703 20.4391 20.7328 20.4221 20.7663C20.4052 20.7998 20.3952 20.8363 20.3928 20.8737C20.3904 20.9111 20.3957 20.9486 20.4082 20.9839C20.4208 21.0193 20.4405 21.0518 20.466 21.0795C20.4915 21.1072 20.5225 21.1296 20.557 21.1454C20.5915 21.1611 20.6288 21.1699 20.6668 21.1712C20.7048 21.1724 20.7426 21.1662 20.7781 21.1528C20.8136 21.1394 20.8461 21.1191 20.8734 21.0931C22.1708 19.9313 23.0969 18.4237 23.5397 16.7575C23.5513 16.7167 23.5534 16.6739 23.5458 16.6322C23.5382 16.5905 23.521 16.5511 23.4957 16.5169C23.4704 16.4827 23.4375 16.4545 23.3996 16.4346C23.3616 16.4147 23.3196 16.4036 23.2767 16.402C23.267 16.4015 23.2574 16.4015 23.2478 16.402ZM19.5414 21.4672C19.4872 21.4683 19.4344 21.4846 19.3893 21.5142C19.2715 21.5892 19.1509 21.6612 19.0286 21.7308C18.9632 21.7679 18.9155 21.8291 18.896 21.9009C18.8764 21.9727 18.8866 22.0492 18.9242 22.1136C18.9619 22.178 19.024 22.225 19.0969 22.2443C19.1697 22.2636 19.2474 22.2535 19.3128 22.2164C19.4432 22.1422 19.5711 22.0645 19.6968 21.9845C19.7494 21.9521 19.7898 21.9035 19.8118 21.8463C19.8338 21.7891 19.8361 21.7264 19.8185 21.6677C19.8009 21.6091 19.7643 21.5577 19.7142 21.5215C19.6642 21.4853 19.6035 21.4662 19.5414 21.4672ZM7.70076 21.9484C7.58292 21.9447 7.46682 21.9772 7.36853 22.0414C7.27025 22.1055 7.19466 22.1982 7.15222 22.3066C7.10978 22.415 7.10259 22.5337 7.13166 22.6463C7.16074 22.7589 7.22462 22.8598 7.31447 22.935C7.46049 23.0608 7.60935 23.183 7.76181 23.3014C7.82023 23.3487 7.88762 23.384 7.96006 23.4053C8.03249 23.4265 8.10851 23.4334 8.18366 23.4254C8.2588 23.4173 8.33157 23.3947 8.3977 23.3586C8.46384 23.3225 8.52202 23.2738 8.56882 23.2153C8.61562 23.1569 8.65012 23.0898 8.67028 23.018C8.69045 22.9462 8.69589 22.8712 8.68627 22.7973C8.67666 22.7235 8.65217 22.6522 8.61428 22.5878C8.57638 22.5233 8.52583 22.467 8.46557 22.422C8.32828 22.3154 8.19412 22.205 8.06263 22.0917C7.96293 22.0034 7.83476 21.9527 7.70076 21.9484Z" fill="#662D41"/>
<path d="M7.64681 14.8222C9.09131 15.644 11.2187 14.678 12.3984 12.6646C13.5781 10.6512 13.3635 8.35289 11.919 7.53113C10.4745 6.70938 8.34711 7.67538 7.16738 9.68876C5.98766 11.7021 6.2023 14.0005 7.64681 14.8222Z" fill="#FDB4CE"/>
<path d="M8.36994 18.6523C9.29683 18.6523 10.0482 18.0937 10.0482 17.4047C10.0482 16.7156 9.29683 16.157 8.36994 16.157C7.44305 16.157 6.69165 16.7156 6.69165 17.4047C6.69165 18.0937 7.44305 18.6523 8.36994 18.6523Z" fill="#FDB4CE"/>
<path d="M13.1499 9.76318C12.2771 10.2736 11.7002 11.1705 11.7002 12.1815C11.7002 12.5811 11.7985 12.9591 11.9611 13.3069C12.1201 13.1037 12.2665 12.8888 12.3984 12.6649C12.9418 11.7364 13.2106 10.6986 13.1499 9.76318Z" fill="#D6336C"/>
<path d="M13.1499 9.76318C12.2771 10.2736 11.7002 11.1705 11.7002 12.1815C11.7002 12.5811 11.7985 12.9591 11.9611 13.3069C12.1201 13.1037 12.2665 12.8888 12.3984 12.6649C12.9418 11.7364 13.2106 10.6986 13.1499 9.76318Z" fill="#D6336C"/>
</svg>
