<svg width="29" height="29" viewBox="0 0 29 29" fill="none" xmlns="http://www.w3.org/2000/svg">
<path d="M28.0994 12.2039C27.8384 11.8411 27.6306 11.4429 27.4822 11.0213C27.3943 10.563 27.3724 10.0944 27.417 9.62986C27.5255 8.81813 27.4009 7.99228 27.0578 7.24867C26.581 6.57305 25.9209 6.0478 25.1555 5.73482C24.7378 5.5454 24.349 5.29772 24.0008 4.99917C23.7029 4.65128 23.4557 4.26299 23.2665 3.84583C22.9531 3.07993 22.4274 2.41949 21.7513 1.9422C21.0076 1.59806 20.181 1.47345 19.3688 1.58303C18.9047 1.62731 18.4367 1.60581 17.9787 1.51917C17.5577 1.36963 17.1601 1.16138 16.7974 0.900596C16.1334 0.386916 15.3362 0.0743676 14.5 0C13.6638 0.0743676 12.8666 0.386916 12.2026 0.900596C11.8404 1.16134 11.4432 1.3696 11.0227 1.51917C10.5636 1.60459 10.0949 1.62608 9.62986 1.58303C8.81826 1.47404 7.99239 1.59815 7.24867 1.94087C6.57336 2.41804 6.04819 3.07796 5.73482 3.84317C5.54572 4.26147 5.29802 4.65071 4.99917 4.99917C4.65098 5.29772 4.26222 5.5454 3.8445 5.73482C3.07935 6.04764 2.4194 6.57237 1.9422 7.24734C1.59906 7.99141 1.47449 8.8177 1.58303 9.62986C1.62761 10.0944 1.60566 10.563 1.51784 11.0213C1.3694 11.4429 1.16156 11.8411 0.900596 12.2039C0.385967 12.8668 0.073291 13.664 0 14.5C0.073291 15.336 0.385967 16.1332 0.900596 16.7961C1.16156 17.1589 1.3694 17.5571 1.51784 17.9787C1.60566 18.437 1.62761 18.9056 1.58303 19.3701C1.47453 20.1819 1.59909 21.0077 1.9422 21.7513C2.41905 22.4269 3.07907 22.9522 3.8445 23.2652C4.26222 23.4546 4.65098 23.7023 4.99917 24.0008C5.29712 24.3487 5.54434 24.737 5.73349 25.1542C6.04694 25.9201 6.57262 26.5805 7.24867 27.0578C7.9924 27.4021 8.81902 27.5267 9.63119 27.417C10.0953 27.3721 10.5633 27.3936 11.0213 27.4808C11.4423 27.6304 11.8399 27.8386 12.2026 28.0994C12.8666 28.6131 13.6638 28.9256 14.5 29C15.3362 28.9256 16.1334 28.6131 16.7974 28.0994C17.1596 27.8387 17.5568 27.6304 17.9773 27.4808C18.4363 27.394 18.9052 27.3725 19.3701 27.417C20.1817 27.5253 21.0074 27.4012 21.7513 27.0591C22.4266 26.582 22.9518 25.922 23.2652 25.1568C23.4543 24.7385 23.702 24.3493 24.0008 24.0008C24.349 23.7023 24.7378 23.4546 25.1555 23.2652C25.9206 22.9524 26.5806 22.4276 27.0578 21.7527C27.4009 21.0086 27.5255 20.1823 27.417 19.3701C27.3724 18.9056 27.3943 18.437 27.4822 17.9787C27.6306 17.5571 27.8384 17.1589 28.0994 16.7961C28.614 16.1332 28.9267 15.336 29 14.5C28.9267 13.664 28.614 12.8668 28.0994 12.2039ZM26.978 16.0817C26.6397 16.5563 26.3759 17.0798 26.1958 17.6341C26.0705 18.2218 26.0341 18.8249 26.088 19.4233C26.1704 19.984 26.1081 20.5564 25.9071 21.0862C25.5449 21.5317 25.0739 21.8762 24.5396 22.0866C24 22.3342 23.5012 22.6626 23.0603 23.0603C22.6617 23.5012 22.3329 24.0005 22.0852 24.5409C21.8762 25.0755 21.5319 25.5467 21.0862 25.9084C20.5566 26.1103 19.9839 26.1722 19.4233 26.088C18.8249 26.0347 18.2218 26.071 17.6341 26.1958C17.0801 26.3759 16.5566 26.6392 16.0817 26.9767C15.6245 27.3425 15.0789 27.5816 14.5 27.6697C13.9211 27.5816 13.3755 27.3425 12.9183 26.9767C12.4429 26.6392 11.919 26.3759 11.3645 26.1958C10.9943 26.1045 10.6137 26.0624 10.2325 26.0707C10.013 26.0707 9.79349 26.0787 9.57665 26.088C9.01597 26.1684 8.44407 26.1062 7.91381 25.9071C7.46934 25.5448 7.1261 25.0737 6.91743 24.5396C6.67026 23.9997 6.34187 23.5008 5.94367 23.0603C5.50258 22.6599 5.00225 22.3301 4.46041 22.0826C3.92602 21.8718 3.45501 21.5268 3.09289 21.0809C2.89259 20.5523 2.83032 19.9814 2.91197 19.422C2.96592 18.824 2.9296 18.2213 2.80422 17.6341C2.62446 17.0793 2.36066 16.5553 2.02202 16.0804C1.65725 15.6231 1.41874 15.0782 1.33028 14.5C1.41852 13.9213 1.65704 13.3759 2.02202 12.9183C2.36032 12.4437 2.6241 11.9202 2.80422 11.3659C2.9294 10.7787 2.96572 10.176 2.91197 9.57798C2.82963 9.01734 2.8919 8.44495 3.09289 7.91514C3.45546 7.47062 3.92644 7.12701 4.46041 6.91743C5.00004 6.66975 5.49883 6.34141 5.93968 5.94367C6.33959 5.50172 6.66935 5.00103 6.91743 4.45908C7.12648 3.92446 7.47071 3.45326 7.91647 3.09156C8.44587 2.89073 9.0179 2.8289 9.57798 2.91197C10.1764 2.96533 10.7795 2.92901 11.3672 2.80422C11.9213 2.62409 12.4447 2.36079 12.9196 2.02335C13.3765 1.65767 13.9215 1.41865 14.5 1.33028C15.0789 1.41842 15.6245 1.65746 16.0817 2.02335C16.5571 2.3608 17.081 2.6241 17.6355 2.80422C18.2225 2.931 18.8254 2.96734 19.4233 2.91197C19.984 2.82963 20.5564 2.8919 21.0862 3.09289C21.5307 3.45521 21.8739 3.92629 22.0826 4.46041C22.3297 5.00032 22.6581 5.49919 23.0563 5.93968C23.4965 6.33831 23.9954 6.66675 24.5356 6.91344C25.07 7.1242 25.541 7.4692 25.9031 7.91514C26.1055 8.44461 26.1691 9.017 26.088 9.57798C26.0341 10.176 26.0704 10.7787 26.1958 11.3659C26.3755 11.9207 26.6393 12.4447 26.978 12.9196C27.3427 13.3769 27.5813 13.9218 27.6697 14.5C27.5815 15.0787 27.343 15.6241 26.978 16.0817ZM17.7259 12.2146L12.2146 17.7259C12.0891 17.8471 11.9211 17.9141 11.7467 17.9126C11.5723 17.9111 11.4055 17.8411 11.2822 17.7178C11.1589 17.5945 11.0889 17.4277 11.0874 17.2533C11.0859 17.0789 11.1529 16.9109 11.2741 16.7854L16.7854 11.2741C16.9109 11.1529 17.0789 11.0859 17.2533 11.0874C17.4277 11.0889 17.5945 11.1589 17.7178 11.2822C17.8411 11.4055 17.9111 11.5723 17.9126 11.7467C17.9141 11.9211 17.8471 12.0891 17.7259 12.2146ZM13.0593 13.0593C13.4232 12.697 13.6502 12.2196 13.7015 11.7086C13.7528 11.1976 13.6253 10.6847 13.3407 10.2572C13.0561 9.82972 12.632 9.51421 12.1407 9.36446C11.6495 9.21471 11.1215 9.23999 10.6468 9.43599C10.1722 9.63199 9.78017 9.98658 9.5377 10.4393C9.29523 10.892 9.2173 11.4148 9.31719 11.9185C9.41709 12.4223 9.68863 12.8758 10.0855 13.2017C10.4824 13.5276 10.98 13.7058 11.4936 13.7058C11.7843 13.7069 12.0724 13.6504 12.3412 13.5394C12.61 13.4284 12.854 13.2652 13.0593 13.0593ZM10.8697 10.8697C10.9931 10.746 11.1505 10.6616 11.3219 10.6274C11.4933 10.5932 11.671 10.6105 11.8325 10.6773C11.994 10.7441 12.1321 10.8573 12.2293 11.0026C12.3264 11.1479 12.3783 11.3188 12.3783 11.4936C12.3783 11.6684 12.3264 11.8392 12.2293 11.9845C12.1321 12.1298 11.994 12.243 11.8325 12.3098C11.671 12.3766 11.4933 12.394 11.3219 12.3598C11.1505 12.3255 10.9931 12.2412 10.8697 12.1175C10.7048 11.9517 10.6122 11.7274 10.6122 11.4936C10.6122 11.2598 10.7048 11.0354 10.8697 10.8697ZM15.9407 15.9407C15.6313 16.2503 15.4206 16.6447 15.3353 17.0741C15.25 17.5034 15.2939 17.9485 15.4615 18.3529C15.6291 18.7572 15.9128 19.1029 16.2768 19.346C16.6408 19.5892 17.0687 19.719 17.5064 19.719C17.9442 19.719 18.3721 19.5892 18.7361 19.346C19.1001 19.1029 19.3838 18.7572 19.5514 18.3529C19.7189 17.9485 19.7629 17.5034 19.6776 17.0741C19.5923 16.6447 19.3816 16.2503 19.0722 15.9407C18.8676 15.7332 18.6238 15.5685 18.355 15.4561C18.0862 15.3436 17.7978 15.2857 17.5064 15.2857C17.2151 15.2857 16.9266 15.3436 16.6578 15.4561C16.389 15.5685 16.1453 15.7332 15.9407 15.9407ZM18.1303 18.1303C18.0281 18.2345 17.9018 18.3117 17.7625 18.3551C17.6232 18.3984 17.4753 18.4067 17.3321 18.3789C17.1888 18.3512 17.0547 18.2885 16.9416 18.1963C16.8285 18.1041 16.7401 17.9853 16.6841 17.8506C16.6281 17.7158 16.6064 17.5693 16.6208 17.4242C16.6353 17.279 16.6855 17.1397 16.767 17.0186C16.8484 16.8976 16.9586 16.7986 17.0876 16.7305C17.2166 16.6624 17.3605 16.6273 17.5064 16.6284C17.6809 16.6283 17.8515 16.68 17.9967 16.7769C18.1418 16.8738 18.2549 17.0116 18.3217 17.1728C18.3885 17.334 18.406 17.5115 18.3719 17.6826C18.3378 17.8538 18.2538 18.011 18.1303 18.1343V18.1303Z" fill="#D6336C"/>
</svg>
