<svg width="24" height="24" viewBox="0 0 24 24" fill="none" xmlns="http://www.w3.org/2000/svg">
<path d="M9.04286 0.5C11.3086 0.5 13.4815 1.40005 15.0836 3.00214C16.6857 4.60424 17.5857 6.77715 17.5857 9.04286C17.5857 11.1589 16.8103 13.104 15.5354 14.6023L15.8903 14.9571H16.9286L23.5 21.5286L21.5286 23.5L14.9571 16.9286V15.8903L14.6023 15.5354C13.104 16.8103 11.1589 17.5857 9.04286 17.5857C6.77715 17.5857 4.60424 16.6857 3.00214 15.0836C1.40005 13.4815 0.5 11.3086 0.5 9.04286C0.5 6.77715 1.40005 4.60424 3.00214 3.00214C4.60424 1.40005 6.77715 0.5 9.04286 0.5ZM9.04286 3.12857C5.75714 3.12857 3.12857 5.75714 3.12857 9.04286C3.12857 12.3286 5.75714 14.9571 9.04286 14.9571C12.3286 14.9571 14.9571 12.3286 14.9571 9.04286C14.9571 5.75714 12.3286 3.12857 9.04286 3.12857Z" fill="#D6336C"/>
</svg>
