<svg width="29" height="29" viewBox="0 0 29 29" fill="none" xmlns="http://www.w3.org/2000/svg">
<path d="M24.8103 14.149L23.5583 13.4484C22.8146 13.0323 22.2212 12.327 21.8872 11.4616L18.1871 1.89408C18.0533 1.54793 17.7816 1.29425 17.4569 1.21483C17.1332 1.13303 16.794 1.23735 16.5472 1.48985C16.2246 1.81939 14.4943 3.4458 12.0619 3.12218C9.76528 2.81634 8.4562 1.02753 8.10974 0.486976C7.9085 0.171653 7.60872 -0.0227562 7.24152 0.00213769C6.90024 0.0139919 6.58594 0.2167 6.40026 0.545063L1.499 9.24964L0.347596 11.2222C-0.286197 12.3092 -0.0289455 13.7839 0.921225 14.5082L18.3002 27.798C19.3282 28.5839 20.5252 29 21.7617 29H25.8881C27.6038 29 29 27.4044 29 25.4437V21.8234C29 18.5849 27.3559 15.5703 24.8093 14.1454L24.8103 14.149ZM25.8891 26.6327H21.7627C20.9381 26.6327 20.1404 26.3553 19.4547 25.8314L2.07471 12.5404L2.64937 11.5553L19.2442 24.2453C20.2721 25.0312 21.4692 25.4473 22.7056 25.4473H26.9264C26.9264 26.1005 26.4607 26.6327 25.8891 26.6327ZM26.9264 23.0764H22.7056C21.881 23.0764 21.0833 22.799 20.3976 22.2751L3.78626 9.57207L7.41578 3.12692C8.32239 4.08237 9.78706 5.20615 11.8212 5.47762C13.9902 5.76805 15.7194 4.95366 16.8096 4.19617L17.7546 6.63815L15.8802 7.83898C15.3802 8.15905 15.2018 8.88097 15.4829 9.45235C15.6727 9.83998 16.0254 10.0581 16.3885 10.0581C16.5607 10.0581 16.7339 10.0095 16.8947 9.90636L18.5969 8.81577L18.9641 9.76411L17.2484 10.8108C16.7432 11.1191 16.5524 11.8374 16.821 12.4147C17.0077 12.8142 17.3666 13.0418 17.737 13.0418C17.9019 13.0418 18.0689 12.9968 18.2245 12.9019L19.8053 11.9382L19.991 12.4183C20.5221 13.7934 21.465 14.9148 22.6476 15.5763L23.8996 16.2768C25.7387 17.307 26.9275 19.4846 26.9275 21.8258V23.0752L26.9264 23.0764Z" fill="#D6336C"/>
</svg>
