<svg width="29" height="29" viewBox="0 0 29 29" fill="none" xmlns="http://www.w3.org/2000/svg">
<path d="M25.3459 14.6823C25.0712 14.6823 24.8078 14.5732 24.6135 14.3789C24.4193 14.1847 24.3102 13.9213 24.3102 13.6466V10.6637C24.3491 10.0768 24.1552 9.49818 23.7707 9.05312C23.3861 8.60806 22.8417 8.33236 22.2553 8.28572H4.33332C4.05863 8.28572 3.7952 8.1766 3.60096 7.98237C3.40673 7.78814 3.29761 7.5247 3.29761 7.25001C3.29761 6.97532 3.40673 6.71188 3.60096 6.51765C3.7952 6.32341 4.05863 6.21429 4.33332 6.21429H22.2553C23.3931 6.25534 24.4682 6.74592 25.2448 7.57846C26.0214 8.411 26.4362 9.51754 26.3982 10.6554V13.6383C26.3993 13.7764 26.3728 13.9134 26.3202 14.0411C26.2676 14.1688 26.19 14.2847 26.092 14.382C25.9939 14.4792 25.8774 14.5559 25.7493 14.6075C25.6211 14.6591 25.484 14.6845 25.3459 14.6823Z" fill="#D6336C"/>
<path d="M22.2555 27.9063H4.33349C3.1957 27.8652 2.12062 27.3747 1.34399 26.5421C0.567373 25.7096 0.152602 24.603 0.190635 23.4651V4.77256C0.190635 4.49787 0.299755 4.23443 0.493989 4.0402C0.688223 3.84597 0.951661 3.73685 1.22635 3.73685C1.50104 3.73685 1.76448 3.84597 1.95871 4.0402C2.15294 4.23443 2.26206 4.49787 2.26206 4.77256V23.4651C2.22325 24.0512 2.41733 24.6289 2.80212 25.0726C3.1869 25.5164 3.73128 25.7903 4.31692 25.8348H22.2555C22.8411 25.7903 23.3855 25.5164 23.7703 25.0726C24.1551 24.6289 24.3492 24.0512 24.3104 23.4651V21.3606C24.3104 21.0859 24.4195 20.8224 24.6137 20.6282C24.8079 20.434 25.0714 20.3248 25.3461 20.3248C25.6208 20.3248 25.8842 20.434 26.0784 20.6282C26.2727 20.8224 26.3818 21.0859 26.3818 21.3606V23.4651C26.4199 24.6003 26.0074 25.7044 25.2343 26.5365C24.4612 27.3685 23.3904 27.861 22.2555 27.9063Z" fill="#D6336C"/>
<path d="M21.8327 8.28572C21.5609 8.28575 21.2999 8.17891 21.1062 7.98824C20.9124 7.79758 20.8014 7.53838 20.797 7.26657V4.97143C20.7776 4.47983 20.5646 4.01584 20.2046 3.68059C19.8445 3.34535 19.3665 3.16603 18.8747 3.18172H3.96046C3.53765 3.16602 3.12585 3.31852 2.81525 3.60583C2.50465 3.89313 2.32056 4.29182 2.30332 4.71457C2.32056 5.13732 2.50465 5.53601 2.81525 5.82332C3.12585 6.11062 3.53765 6.26313 3.96046 6.24743H13.0747C13.3494 6.24743 13.6129 6.35655 13.8071 6.55078C14.0013 6.74502 14.1105 7.00846 14.1105 7.28314C14.1105 7.55783 14.0013 7.82127 13.8071 8.01551C13.6129 8.20974 13.3494 8.31886 13.0747 8.31886H3.9356C3.45287 8.32653 2.97337 8.2389 2.52456 8.06097C2.07575 7.88305 1.66645 7.61834 1.3201 7.28199C0.97375 6.94565 0.697155 6.54428 0.506157 6.10088C0.315158 5.65748 0.213509 5.18075 0.207031 4.698C0.224465 3.72591 0.626852 2.80045 1.32588 2.12472C2.02492 1.44899 2.96348 1.0782 3.9356 1.09372H18.8499C19.3688 1.08273 19.8848 1.17451 20.3681 1.36375C20.8514 1.55299 21.2925 1.83597 21.666 2.19639C22.0396 2.5568 22.3381 2.98754 22.5444 3.4638C22.7508 3.94006 22.8609 4.45244 22.8685 4.97143V7.26657C22.8641 7.53838 22.7531 7.79758 22.5593 7.98824C22.3655 8.17891 22.1046 8.28575 21.8327 8.28572ZM26.017 22.3714H20.275C19.1534 22.3936 18.0689 21.9698 17.2595 21.1931C16.4501 20.4163 15.9821 19.3501 15.9582 18.2286V16.7289C15.9821 15.6073 16.4501 14.5411 17.2595 13.7643C18.0689 12.9876 19.1534 12.5638 20.275 12.586H26.075C26.4374 12.5871 26.7959 12.6595 27.1303 12.7992C27.4646 12.9389 27.7682 13.143 28.0236 13.4C28.2791 13.657 28.4814 13.9617 28.619 14.2969C28.7567 14.6321 28.827 14.9911 28.8259 15.3534V19.6537C28.8128 20.3863 28.5098 21.0837 27.9832 21.5932C27.4567 22.1026 26.7496 22.3825 26.017 22.3714ZM20.275 14.6657C19.7041 14.6432 19.1475 14.8476 18.7268 15.2342C18.3061 15.6207 18.0554 16.1581 18.0296 16.7289V18.27C18.0554 18.8408 18.3061 19.3781 18.7268 19.7647C19.1475 20.1513 19.7041 20.3556 20.275 20.3331H26.017C26.198 20.3332 26.3717 20.2618 26.5004 20.1347C26.6291 20.0075 26.7026 19.8347 26.7047 19.6537V15.3534C26.6998 15.1881 26.6316 15.0309 26.5142 14.9143C26.452 14.8493 26.3775 14.7975 26.2949 14.7619C26.2124 14.7264 26.1235 14.7077 26.0336 14.7071L20.275 14.6657Z" fill="#D6336C"/>
<path d="M20.8467 18.5351C21.4188 18.5351 21.8825 18.0714 21.8825 17.4994C21.8825 16.9274 21.4188 16.4637 20.8467 16.4637C20.2747 16.4637 19.811 16.9274 19.811 17.4994C19.811 18.0714 20.2747 18.5351 20.8467 18.5351Z" fill="#D6336C"/>
</svg>
