<svg width="30" height="30" viewBox="0 0 30 30" fill="none" xmlns="http://www.w3.org/2000/svg">
<path d="M13.7836 7.33453C13.714 7.33463 13.6452 7.3192 13.5823 7.28936C13.5194 7.25952 13.464 7.21602 13.42 7.16203C12.6104 6.16928 12.1924 5.25492 12.1776 4.44445C12.1617 3.56795 12.4831 2.85586 13.0827 2.43926C13.4987 2.15016 13.9764 2.02512 14.501 2.06754C14.5623 2.07249 14.6221 2.08947 14.6769 2.11752C14.7317 2.14558 14.7804 2.18415 14.8203 2.23103C14.8602 2.27792 14.8904 2.3322 14.9093 2.39078C14.9282 2.44936 14.9354 2.51109 14.9304 2.57244C14.9096 2.83049 14.6828 3.02203 14.4255 3.00193C14.1183 2.97703 13.854 3.04488 13.6177 3.20912C13.1892 3.50672 13.1078 4.03582 13.115 4.42728C13.1259 5.02266 13.4729 5.74342 14.1466 6.56953C14.2026 6.63823 14.238 6.72141 14.2487 6.80941C14.2593 6.89741 14.2448 6.98664 14.2068 7.06673C14.1688 7.14682 14.1089 7.21449 14.034 7.26189C13.9591 7.30929 13.8722 7.33448 13.7836 7.33453ZM30 9.08807C30 9.26238 29.9688 9.43254 29.9071 9.5942L27.4218 17.6521C27.161 18.4976 26.6546 19.2165 25.9573 19.7312C25.2552 20.2493 24.4181 20.5231 23.5365 20.5231H16.0829C15.9057 21.097 15.3704 21.5152 14.7391 21.5152H8.5326C8.21848 21.5152 7.92123 21.6393 7.69576 21.8649C7.47023 22.0904 7.34607 22.3876 7.34607 22.7017C7.34607 23.0159 7.47023 23.3131 7.69576 23.5386C7.92123 23.7641 8.21842 23.8883 8.5326 23.8883H8.93197C9.5826 23.2314 10.4844 22.8237 11.4797 22.8237C12.4751 22.8237 13.3769 23.2314 14.0275 23.8883H20.4729C21.1235 23.2314 22.0253 22.8237 23.0207 22.8237C24.9991 22.8237 26.6087 24.4333 26.6087 26.4117C26.6087 28.3901 24.9992 29.9998 23.0208 29.9998C21.1503 29.9998 19.6104 28.5609 19.4478 26.7319H15.0528C14.8901 28.5609 13.3503 29.9998 11.4798 29.9998C9.59221 29.9998 8.04152 28.5343 7.90301 26.6815C7.06781 26.5494 6.2925 26.1567 5.68512 25.5493C4.9224 24.7864 4.5024 23.7753 4.5024 22.7017C4.5024 21.6282 4.9224 20.617 5.68512 19.8542C6.01556 19.5243 6.40025 19.2537 6.82236 19.0542L3.34488 4.64947H1.42189C0.637852 4.64947 0 4.01168 0 3.22769C0 2.44365 0.637852 1.8058 1.42189 1.8058H3.599C4.17123 1.8058 4.70971 1.99172 5.15643 2.3434C5.60127 2.69361 5.90766 3.17391 6.04236 3.73242L6.99205 7.66629H11.2383C10.5726 6.66246 10.1301 5.5851 10.11 4.48207C10.0755 2.594 11.0487 1.00336 12.6497 0.330937C14.3666 -0.390294 16.3965 0.0809758 18.0388 1.55549C19.6809 0.0812103 21.7104 -0.390118 23.4276 0.33082C25.0284 1.00307 26.0017 2.59342 25.9676 4.48137C25.9476 5.58463 25.505 6.66217 24.8392 7.66623H28.5782C29.3621 7.66629 30 8.30414 30 9.08807ZM11.0474 4.46502C11.0727 5.85264 11.9956 7.46818 13.7162 9.13711C15.3152 10.6881 17.1349 11.8548 18.0387 12.3918C18.9427 11.8547 20.7625 10.6878 22.3615 9.13682C24.0823 7.46777 25.0051 5.85205 25.0301 4.46443C25.0576 2.94568 24.3229 1.72359 23.0646 1.19519C21.5907 0.57621 19.7929 1.08861 18.3729 2.53236C18.3293 2.5767 18.2773 2.61192 18.2199 2.63595C18.1625 2.65999 18.1009 2.67237 18.0387 2.67237C17.9765 2.67237 17.9149 2.65999 17.8576 2.63595C17.8002 2.61192 17.7481 2.5767 17.7045 2.53236C16.6829 1.49355 15.4657 0.936913 14.3143 0.936913C13.8652 0.936913 13.4263 1.02152 13.0127 1.19525C11.7543 1.72383 11.0196 2.94615 11.0474 4.46502ZM22.6955 12.5385H19.5657C19.2182 12.7684 18.8654 12.9901 18.5075 13.2035V15.5741H22.6955V12.5385ZM23.633 15.5742H27.0816L28.0179 12.5385H23.633V15.5742ZM22.6955 16.5117H18.5075V19.5857H22.6955V16.5117ZM16.0562 19.5857H17.57V16.5117H13.3821V18.6715H14.739C15.3414 18.6715 15.8563 19.0523 16.0562 19.5857ZM13.3821 11.601H15.1785C14.5958 11.1648 13.9784 10.6646 13.3821 10.1142V11.601ZM13.3821 12.5385V15.5742H17.5701V13.2036C17.2122 12.9902 16.8594 12.7685 16.5118 12.5386H13.3821V12.5385ZM12.4446 12.5385H8.16832L8.90115 15.5742H12.4446V12.5385ZM9.12744 16.5117L9.64887 18.6715H12.4446V16.5117H9.12744ZM22.6955 11.601V10.114C22.0992 10.6646 21.4817 11.1648 20.899 11.601H22.6955ZM7.2184 8.60379L7.94197 11.601H12.4446V9.18129C12.2702 8.99352 12.1011 8.80095 11.9375 8.60379H7.2184ZM20.3702 26.4118C20.3702 27.8733 21.5592 29.0623 23.0207 29.0623C24.4822 29.0623 25.6712 27.8733 25.6712 26.4118C25.6712 24.9503 24.4822 23.7613 23.0207 23.7613C21.5592 23.7613 20.3702 24.9502 20.3702 26.4118ZM14.6971 24.8258C14.8485 25.1318 14.9551 25.458 15.0135 25.7944H19.487C19.5454 25.458 19.652 25.1318 19.8034 24.8258H14.6971ZM8.82932 26.4118C8.82932 27.8733 10.0183 29.0623 11.4798 29.0623C12.9413 29.0623 14.1303 27.8733 14.1303 26.4118C14.1303 24.9503 12.9413 23.7613 11.4798 23.7613C10.0183 23.7613 8.82932 24.9502 8.82932 26.4118ZM15.2078 20.0777C15.2078 19.8193 14.9975 19.609 14.7391 19.609H9.27979C9.17459 19.609 9.07246 19.5736 8.98981 19.5085C8.90717 19.4435 8.84882 19.3525 8.82416 19.2502L5.13105 3.95232C5.04615 3.60035 4.85432 3.29877 4.57647 3.07998C4.29674 2.85967 3.95871 2.7433 3.59895 2.7433H1.42189C1.15477 2.7433 0.9375 2.96057 0.9375 3.22769C0.9375 3.49476 1.15477 3.71203 1.42189 3.71203H3.599C3.88852 3.71203 4.12834 3.89977 4.19578 4.1792L7.82801 19.2251C7.85534 19.3384 7.83954 19.4577 7.78369 19.5599C7.72785 19.6621 7.63594 19.7399 7.5259 19.778C7.08662 19.9303 6.67934 20.1859 6.34805 20.5172C5.7624 21.1028 5.4399 21.8787 5.4399 22.7018C5.4399 23.5249 5.7624 24.3007 6.34805 24.8864C6.79166 25.33 7.35123 25.625 7.95574 25.7401C8.01727 25.4167 8.12336 25.1034 8.27098 24.8091C7.80498 24.7515 7.3725 24.5413 7.03277 24.2016C6.63023 23.7989 6.40857 23.2663 6.40857 22.7017C6.40857 22.1371 6.63023 21.6045 7.03277 21.2019C7.43537 20.7994 7.96805 20.5777 8.5326 20.5777H14.7391C14.9975 20.5777 15.2078 20.3674 15.2078 20.1089V20.0777ZM26.5259 17.3759L26.7925 16.5117H23.633V19.5838C24.2773 19.5648 24.8866 19.3563 25.4006 18.9769C25.9355 18.5821 26.3246 18.0284 26.5259 17.3759ZM29.0625 9.08807C29.0625 8.82099 28.8452 8.60373 28.5781 8.60373H24.14C23.9764 8.80085 23.8073 8.99339 23.633 9.18111V11.601H28.3071L29.0162 9.30182C29.0199 9.28992 29.024 9.27826 29.0286 9.26666C29.0511 9.21012 29.0625 9.15006 29.0625 9.08807ZM9.74103 26.4118C9.74103 25.453 10.5211 24.6729 11.4798 24.6729C12.4385 24.6729 13.2186 25.453 13.2186 26.4118C13.2186 27.3705 12.4385 28.1505 11.4798 28.1505C10.5211 28.1505 9.74103 27.3705 9.74103 26.4118ZM10.6785 26.4118C10.6785 26.8536 11.038 27.213 11.4798 27.213C11.9216 27.213 12.2811 26.8536 12.2811 26.4118C12.2811 25.9699 11.9216 25.6104 11.4798 25.6104C11.038 25.6104 10.6785 25.9699 10.6785 26.4118ZM21.282 26.4118C21.282 25.453 22.0621 24.6729 23.0208 24.6729C23.9795 24.6729 24.7596 25.453 24.7596 26.4118C24.7596 27.3705 23.9795 28.1505 23.0208 28.1505C22.0621 28.1505 21.282 27.3705 21.282 26.4118ZM22.2195 26.4118C22.2195 26.8536 22.579 27.213 23.0208 27.213C23.4626 27.213 23.8221 26.8536 23.8221 26.4118C23.8221 25.9699 23.4626 25.6104 23.0208 25.6104C22.579 25.6104 22.2195 25.9699 22.2195 26.4118Z" fill="#D6336C"/>
</svg>
